<?xml version="1.0" encoding="utf-8"?>
<!-- Generator: Adobe Illustrator 27.3.1, SVG Export Plug-In . SVG Version: 6.00 Build 0)  -->
<svg version="1.1" id="Layer_1" xmlns="http://www.w3.org/2000/svg" xmlns:xlink="http://www.w3.org/1999/xlink" x="0px" y="0px"
	 viewBox="0 0 1000 538" style="enable-background:new 0 0 1000 538;" xml:space="preserve">
<style type="text/css">
	.st0{fill:#282828;stroke:#282828;stroke-width:16;stroke-miterlimit:10;}
	.st1{fill:#282828;}
</style>
<path class="st0" d="M457.72,361.17c11.63,20,20.9,34.08,27.81,42.26c6.9,8.18,12,12.27,15.27,12.27v4.91h-68.17v-4.91
	c1.45,0,2.54-0.55,3.27-1.64c0.72-1.09,0.63-3.27-0.27-6.54c-0.91-3.27-2.64-7.81-5.18-13.63c-2.55-5.81-6.54-13.45-12-22.9
	L318.12,193.21l-61.62,61.08v119.43c0,8.73,0.55,15.91,1.64,21.54c1.09,5.64,2.27,9.91,3.54,12.82c1.27,2.91,2.63,4.91,4.09,6
	c1.45,1.09,2.73,1.64,3.82,1.64v4.91h-63.8v-4.91c0.72,0,1.81-0.55,3.27-1.64c1.45-1.09,2.81-3.08,4.09-6
	c1.27-2.91,2.45-7.17,3.54-12.82c1.09-5.63,1.64-12.82,1.64-21.54V84.69c0-9.08-0.55-16.36-1.64-21.81
	c-1.09-5.45-2.27-9.63-3.54-12.54c-1.28-2.91-2.64-4.91-4.09-6c-1.46-1.09-2.55-1.64-3.27-1.64v-4.91h63.8v4.91
	c-1.09,0-2.37,0.55-3.82,1.64c-1.46,1.09-2.82,3.09-4.09,6c-1.28,2.91-2.45,7.09-3.54,12.54c-1.09,5.45-1.64,12.73-1.64,21.81
	v163.05l147.24-146.69c18.17-18.54,29.35-32.9,33.54-43.08c4.17-10.17-2.1-15.27-18.81-15.27v-4.91h87.25v4.91
	c-7.63,0-15.81,2-24.54,6c-8.73,4-17.54,9.09-26.45,15.27c-8.91,6.19-17.64,13-26.18,20.45c-8.55,7.46-16.09,14.45-22.63,21
	l-58.9,58.9L457.72,361.17z"/>
<path class="st0" d="M619.14,420.61h-63.8v-4.91c0.72,0,1.81-0.55,3.27-1.64c1.45-1.09,2.81-3.08,4.09-6
	c1.27-2.91,2.45-7.17,3.54-12.82c1.09-5.63,1.64-12.82,1.64-21.54V84.69c0-9.08-0.55-16.36-1.64-21.81
	c-1.09-5.45-2.27-9.63-3.54-12.54c-1.28-2.91-2.64-4.91-4.09-6c-1.46-1.09-2.55-1.64-3.27-1.64v-4.91h4.91
	c16.36-0.36,33.35-1.45,50.99-3.27c17.63-1.81,34.44-2.73,50.44-2.73c27.62,0,50.89,2.27,69.8,6.82
	c18.9,4.55,34.17,10.82,45.81,18.81c11.63,8,19.99,17.54,25.09,28.63c5.09,11.09,7.63,23.18,7.63,36.26
	c0,13.09-2.56,25.18-7.66,36.26c-5.1,11.09-13.49,20.54-25.15,28.36c-11.66,7.82-26.98,14-45.93,18.54
	c-18.96,4.55-42.29,6.82-69.99,6.82h-55.22v161.42c0,8.73,0.55,15.91,1.64,21.54c1.09,5.64,2.27,9.91,3.54,12.82
	c1.27,2.91,2.63,4.91,4.09,6c1.45,1.09,2.73,1.64,3.82,1.64V420.61z M661.31,207.38v0.55c11.67,0,23.98-1.27,36.93-3.82
	c12.95-2.54,24.9-7.09,35.84-13.63c10.94-6.54,19.97-15.35,27.09-26.45c7.11-11.09,10.67-24.99,10.67-41.72
	c0-16.72-3.56-30.62-10.67-41.72c-7.11-11.09-16.15-19.9-27.09-26.45c-10.94-6.54-22.89-11.18-35.84-13.91
	c-12.95-2.73-25.26-4.09-36.93-4.09c-8.76,0-17.78,0.37-27.09,1.09c-9.3,0.73-18.69,1.46-28.17,2.18v167.96H661.31z"/>
<g>
	<path class="st1" d="M40.86,512.63h-15.7l-2.6,7.51h-8.3l14.17-39.46h9.2l14.17,39.46h-8.36L40.86,512.63z M38.71,506.31
		l-5.7-16.48l-5.7,16.48H38.71z"/>
	<path class="st1" d="M134.91,513.87h12.99v6.27h-20.89v-39.41h7.9V513.87z"/>
	<path class="st1" d="M189.06,480.73v39.41h-7.9v-39.41H189.06z"/>
	<path class="st1" d="M249.41,480.73v6.38h-16.43v10.11h12.59v6.27h-12.59v16.66h-7.9v-39.41H249.41z"/>
	<path class="st1" d="M291.13,487.11v9.88h13.27v6.27h-13.27v10.44h14.96v6.44h-22.87v-39.46h22.87v6.44H291.13z"/>
	<path class="st1" d="M347.68,519.12c-2.2-0.94-3.94-2.29-5.22-4.07c-1.28-1.77-1.94-3.86-1.98-6.27h8.47
		c0.11,1.62,0.69,2.9,1.72,3.84c1.03,0.94,2.46,1.41,4.26,1.41c1.84,0,3.29-0.44,4.35-1.33c1.05-0.88,1.58-2.04,1.58-3.47
		c0-1.17-0.36-2.13-1.07-2.88c-0.72-0.75-1.61-1.35-2.68-1.78c-1.07-0.43-2.55-0.91-4.43-1.44c-2.56-0.75-4.64-1.5-6.24-2.23
		c-1.6-0.73-2.97-1.84-4.12-3.33c-1.15-1.49-1.72-3.47-1.72-5.96c0-2.33,0.58-4.37,1.75-6.1c1.17-1.73,2.8-3.06,4.91-3.98
		c2.11-0.92,4.52-1.38,7.23-1.38c4.07,0,7.37,0.99,9.91,2.96c2.54,1.98,3.94,4.73,4.21,8.27h-8.69c-0.07-1.36-0.65-2.47-1.72-3.36
		c-1.07-0.88-2.49-1.33-4.26-1.33c-1.54,0-2.78,0.4-3.7,1.19c-0.92,0.79-1.38,1.94-1.38,3.44c0,1.05,0.35,1.93,1.04,2.62
		c0.7,0.7,1.56,1.26,2.6,1.69c1.03,0.43,2.49,0.93,4.37,1.5c2.56,0.75,4.65,1.51,6.27,2.26c1.62,0.75,3.01,1.88,4.18,3.39
		c1.17,1.51,1.75,3.48,1.75,5.93c0,2.11-0.54,4.07-1.64,5.87s-2.69,3.25-4.8,4.32c-2.11,1.07-4.61,1.61-7.51,1.61
		C352.35,520.53,349.88,520.06,347.68,519.12z"/>
	<path class="st1" d="M430.92,480.73v6.38h-10.5v33.03h-7.9v-33.03h-10.5v-6.38H430.92z"/>
	<path class="st1" d="M496.24,480.73l-13.32,25.69v13.72h-7.9v-13.72l-13.38-25.69h8.92l8.47,18.01l8.41-18.01H496.24z"/>
	<path class="st1" d="M536.95,513.87h12.99v6.27h-20.89v-39.41h7.9V513.87z"/>
	<path class="st1" d="M591.09,487.11v9.88h13.27v6.27h-13.27v10.44h14.96v6.44h-22.87v-39.46h22.87v6.44H591.09z"/>
	<path class="st1" d="M710.95,503.26c1.43,1.81,2.15,3.88,2.15,6.21c0,2.11-0.52,3.96-1.55,5.56c-1.03,1.6-2.53,2.85-4.49,3.75
		c-1.96,0.9-4.27,1.36-6.94,1.36h-16.99v-39.41h16.26c2.67,0,4.98,0.43,6.92,1.3c1.94,0.87,3.41,2.07,4.4,3.61
		c1,1.54,1.5,3.29,1.5,5.25c0,2.3-0.61,4.22-1.83,5.76c-1.22,1.54-2.85,2.64-4.88,3.28C707.7,500.34,709.52,501.45,710.95,503.26z
		 M691.02,496.99h7.23c1.88,0,3.33-0.42,4.35-1.27c1.02-0.85,1.52-2.06,1.52-3.64s-0.51-2.8-1.52-3.67c-1.02-0.87-2.47-1.3-4.35-1.3
		h-7.23V496.99z M703.47,512.35c1.07-0.9,1.61-2.18,1.61-3.84c0-1.69-0.56-3.02-1.69-3.98c-1.13-0.96-2.65-1.44-4.57-1.44h-7.79
		v10.61h7.96C700.9,513.7,702.4,513.25,703.47,512.35z"/>
	<path class="st1" d="M767.98,520.14l-8.69-15.36h-3.73v15.36h-7.9v-39.41h14.79c3.05,0,5.65,0.54,7.79,1.61
		c2.14,1.07,3.75,2.52,4.83,4.35c1.07,1.83,1.61,3.87,1.61,6.13c0,2.6-0.75,4.94-2.26,7.03c-1.51,2.09-3.75,3.53-6.72,4.32
		l9.43,15.98H767.98z M755.55,498.85h6.61c2.15,0,3.74-0.52,4.8-1.55c1.05-1.03,1.58-2.47,1.58-4.32c0-1.81-0.53-3.21-1.58-4.21
		c-1.05-1-2.65-1.5-4.8-1.5h-6.61V498.85z"/>
	<path class="st1" d="M836.23,512.63h-15.7l-2.6,7.51h-8.3l14.17-39.46h9.2l14.17,39.46h-8.36L836.23,512.63z M834.09,506.31
		l-5.7-16.48l-5.7,16.48H834.09z"/>
	<path class="st1" d="M914.43,520.14h-7.9l-17.9-27.04v27.04h-7.9v-39.46h7.9l17.9,27.1v-27.1h7.9V520.14z"/>
	<path class="st1" d="M975.15,483.16c3.14,1.62,5.57,3.92,7.28,6.92c1.71,2.99,2.57,6.46,2.57,10.42c0,3.95-0.86,7.41-2.57,10.36
		c-1.71,2.95-4.14,5.24-7.28,6.86c-3.14,1.62-6.78,2.43-10.92,2.43h-13.78v-39.41h13.78C968.36,480.73,972.01,481.54,975.15,483.16z
		 M973.54,510.03c2.26-2.26,3.39-5.44,3.39-9.54c0-4.1-1.13-7.31-3.39-9.63c-2.26-2.32-5.46-3.47-9.6-3.47h-5.59v26.03h5.59
		C968.08,513.42,971.28,512.29,973.54,510.03z"/>
</g>
</svg>
